<?xml version="1.0" standalone="no"?><!DOCTYPE svg PUBLIC "-//W3C//DTD SVG 1.1//EN" "http://www.w3.org/Graphics/SVG/1.1/DTD/svg11.dtd"><svg t="1753956116807" class="icon" viewBox="0 0 1024 1024" version="1.1" xmlns="http://www.w3.org/2000/svg" p-id="4700" xmlns:xlink="http://www.w3.org/1999/xlink" width="200" height="200"><path d="M209.826265 13.981538c106.811077-32.768 190.148923-1.732923 241.348923 29.932308 26.269538 16.265846 46.788923 34.264615 61.124923 48.915692a337.132308 337.132308 0 0 1 61.164307-48.915692c51.2-31.665231 134.537846-62.621538 241.348924-29.932308 44.307692 13.548308 82.983385 35.367385 115.003076 65.063385a283.451077 283.451077 0 0 1 70.262154 101.809231c19.259077 47.064615 27.254154 100.706462 23.079385 155.096615a412.238769 412.238769 0 0 1-46.552615 159.822769c-46.040615 87.158154-158.483692 211.968-334.296616 371.003077 5.671385 13.548308 8.861538 28.356923 8.861539 43.992616 0 62.424615-50.215385 113.230769-111.970462 113.230769s-111.970462-50.806154-111.970461-113.230769c0-62.464 50.215385-113.270154 111.970461-113.270154 24.024615 0 46.395077 7.719385 64.708923 20.873846 169.038769-153.127385 276.204308-271.438769 318.582154-351.783385 45.056-85.543385 52.775385-183.532308 20.598154-261.907692-26.505846-64.787692-77.075692-110.276923-146.195692-131.347692-67.544615-20.598154-131.229538-13.154462-189.558154 22.331077a260.332308 260.332308 0 0 0-70.22277 62.227692 30.404923 30.404923 0 0 1-24.930461 13.036308 30.562462 30.562462 0 0 1-25.048615-13.154462c-0.236308-0.236308-25.166769-34.776615-70.104616-62.109538-58.289231-35.485538-122.013538-42.929231-189.518769-22.331077-69.001846 21.267692-119.571692 66.56-146.235077 131.387077-32.295385 78.375385-24.536615 176.324923 20.637538 261.868307 20.007385 38.006154 55.847385 86.055385 106.811077 143.163077a79.635692 79.635692 0 0 1 86.409847 25.718154l27.017846 33.28a81.762462 81.762462 0 0 1-11.027693 114.097231 79.556923 79.556923 0 0 1-112.836923-11.185231l-27.017846-33.28a81.801846 81.801846 0 0 1-9.334154-88.379077c-53.641846-60.258462-91.963077-112.009846-114.176-154.112A412.238769 412.238769 0 0 1 1.245342 336.068923c-4.056615-54.508308 4.056615-108.268308 23.315692-155.175385a284.987077 284.987077 0 0 1 70.222769-101.848615C126.84288 49.348923 165.518572 27.529846 209.78688 13.981538z m329.491692 833.457231c-34.619077 0-62.857846 28.553846-62.857846 63.566769 0 35.012923 28.120615 63.566769 62.857846 63.56677 34.737231 0 62.857846-28.553846 62.857846-63.56677 0-35.052308-28.238769-63.566769-62.857846-63.566769zM233.378265 655.596308a30.365538 30.365538 0 0 0-19.613539 7.08923 31.744 31.744 0 0 0-4.332308 44.189539l27.017847 33.28a30.877538 30.877538 0 0 0 43.716923 4.332308 31.744 31.744 0 0 0 4.292923-44.189539l-27.017846-33.28a30.877538 30.877538 0 0 0-24.024616-11.421538z m285.184-118.35077c31.901538 0 63.488 4.214154 93.932307 12.524308a24.812308 24.812308 0 0 1 17.329231 30.444308 24.418462 24.418462 0 0 1-30.089846 17.486769 312.674462 312.674462 0 0 0-81.132308-10.909538c-33.792 0-67.072 5.474462-98.737231 16.265846a24.733538 24.733538 0 0 1-31.192615-15.635693 24.891077 24.891077 0 0 1 15.478154-31.428923 357.139692 357.139692 0 0 1 114.412308-18.747077z m0-108.544c71.207385 0 139.972923 21.110154 199.010461 60.849231a24.969846 24.969846 0 0 1 6.892308 34.422154 24.339692 24.339692 0 0 1-34.028308 6.931692 306.806154 306.806154 0 0 0-171.874461-52.381538c-62.227692 0-122.131692 18.510769-173.449847 53.484308a24.536615 24.536615 0 0 1-34.146461-6.695385 24.969846 24.969846 0 0 1 6.656-34.500923 355.328 355.328 0 0 1 200.940308-62.109539z" p-id="4701"></path></svg>